<svg class="icon" viewBox="0 0 24 24" id="SVGRoot" version="1.1" xmlns="http://www.w3.org/2000/svg">
    <g>
        <path d="M 12 2 C 6.4889971 2 2 6.4889971 2 12 C 2 17.511003 6.4889971 22 12 22 C 17.511003 22 22 17.511003 22 12 C 22 6.4889971 17.511003 2 12 2 z M 12 4 C 16.430123 4 20 7.5698774 20 12 C 20 16.430123 16.430123 20 12 20 C 7.5698774 20 4 16.430123 4 12 C 4 7.5698774 7.5698774 4 12 4 z M 11.029297 8 A 1 1 0 0 0 10.292969 8.2929688 L 7.3125 11.273438 L 7.2929688 11.292969 A 1.0001 1.0001 0 0 0 7.2832031 11.302734 A 1 1 0 0 0 7.2363281 11.355469 A 1 1 0 0 0 7.1855469 11.421875 A 1 1 0 0 0 7.1464844 11.482422 A 1.0001 1.0001 0 0 0 7.1289062 11.509766 A 1 1 0 0 0 7.0996094 11.566406 A 1 1 0 0 0 7.0683594 11.638672 A 1.0001 1.0001 0 0 0 7.0644531 11.650391 A 1 1 0 0 0 7.0410156 11.714844 A 1.0001 1.0001 0 0 0 7.0332031 11.75 A 1 1 0 0 0 7.0234375 11.791016 A 1.0001 1.0001 0 0 0 7.015625 11.828125 A 1 1 0 0 0 7.0078125 11.871094 A 1.0001 1.0001 0 0 0 7.0019531 11.943359 A 1.0001 1.0001 0 0 0 7 11.988281 A 1 1 0 0 0 7 12 A 1 1 0 0 0 7.0019531 12.029297 A 1.0001 1.0001 0 0 0 7.0039062 12.066406 A 1 1 0 0 0 7.0078125 12.117188 A 1.0001 1.0001 0 0 0 7.0117188 12.146484 A 1 1 0 0 0 7.0253906 12.222656 A 1 1 0 0 0 7.0410156 12.28125 A 1.0001 1.0001 0 0 0 7.0546875 12.324219 A 1 1 0 0 0 7.0585938 12.337891 A 1.0001 1.0001 0 0 0 7.0878906 12.408203 A 1.0001 1.0001 0 0 0 7.1210938 12.474609 A 1 1 0 0 0 7.1347656 12.501953 A 1.0001 1.0001 0 0 0 7.1640625 12.546875 A 1 1 0 0 0 7.1777344 12.568359 A 1.0001 1.0001 0 0 0 7.2011719 12.601562 A 1 1 0 0 0 7.21875 12.623047 A 1.0001 1.0001 0 0 0 7.265625 12.677734 A 1 1 0 0 0 7.2851562 12.699219 A 1.0001 1.0001 0 0 0 7.2929688 12.707031 A 1 1 0 0 0 7.3339844 12.746094 L 10.292969 15.707031 A 1 1 0 0 0 11.707031 15.707031 A 1 1 0 0 0 11.707031 14.292969 L 10.414062 13 L 16 13 A 1 1 0 0 0 17 12 A 1 1 0 0 0 16 11 L 10.414062 11 L 11.707031 9.7070312 A 1 1 0 0 0 11.707031 8.2929688 A 1 1 0 0 0 11.029297 8 z " />
    </g>
</svg>